<svg xmlns="http://www.w3.org/2000/svg" viewBox="0 0 512 512" width="512" height="512">
  <!-- Orange circle background -->
  <circle cx="256" cy="256" r="256" fill="#FF7A2E"/>
  
  <!-- Blender logo shape (simplified) -->
  <path d="M381.163 220.127c-1.374-35.801-25.634-66.805-60.237-76.704-23.249-6.647-47.914-4.661-69.538 5.594-21.623 10.254-37.963 28.329-45.917 50.844-7.954 22.515-6.954 47.223 2.818 68.969 9.772 21.746 27.328 38.671 49.413 47.663 11.084 4.538 22.716 6.825 34.348 6.825 10.428 0 20.856-1.873 30.741-5.607 21.623-8.146 39.35-24.074 49.984-44.896 10.634-20.822 12.762-44.883 8.388-67.688zm-125.148 66.06c-16.536-6.935-27.54-23.127-27.54-40.574 0-24.725 20.117-44.842 44.842-44.842 24.724 0 44.841 20.117 44.841 44.842 0 17.434-11.017 33.626-27.553 40.574-5.661 2.347-11.563 3.512-17.275 3.512-5.725.001-11.64-1.165-17.315-3.512z" 
        fill="#FFFFFF"/>
</svg> 