<?xml version="1.0" encoding="UTF-8"?>
<svg width="110" height="110" viewBox="45 35 110 110" xmlns="http://www.w3.org/2000/svg">
  <!-- Definitions for gradients, filters and other effects -->
  <defs>
    <!-- Main key gradient -->
    <linearGradient id="topGradient" x1="0%" y1="0%" x2="100%" y2="100%">
      <stop offset="0%" stop-color="#ff8c41" />
      <stop offset="100%" stop-color="#ff5e00" />
    </linearGradient>
    
    <linearGradient id="sideGradient" x1="0%" y1="0%" x2="0%" y2="100%">
      <stop offset="0%" stop-color="#e45200" />
      <stop offset="100%" stop-color="#c83c00" />
    </linearGradient>
    
    <!-- Shadow filter -->
    <filter id="shadow" x="-20%" y="-20%" width="140%" height="140%">
      <feDropShadow dx="2" dy="4" stdDeviation="3" flood-opacity="0.3" />
    </filter>
    
    <!-- Inner shadow filter -->
    <filter id="innerShadow" x="-20%" y="-20%" width="140%" height="140%">
      <feGaussianBlur in="SourceAlpha" stdDeviation="3" result="blur" />
      <feOffset in="blur" dx="0" dy="2" result="offsetBlur" />
      <feComposite in="SourceGraphic" in2="offsetBlur" operator="over" />
    </filter>
  </defs>
  
  <!-- Main key group - adjusted to be more square -->
  <g transform="translate(50, 40)" filter="url(#shadow)">
    <!-- Bottom plate - base of the key -->
    <polygon points="0,100 100,100 90,85 10,85" fill="#aa3600" />
    
    <!-- Left side wall -->
    <polygon points="0,20 0,100 10,85 10,30" fill="url(#sideGradient)" />
    
    <!-- Right side wall -->
    <polygon points="100,20 100,100 90,85 90,30" fill="#c04000" />
    
    <!-- Front side wall (facing viewer) -->
    <polygon points="10,85 90,85 90,30 10,30" fill="url(#sideGradient)" />
    
    <!-- Top plate with concave effect -->
    <g>
      <!-- Base top plate -->
      <polygon points="0,20 100,20 90,30 10,30" fill="#ff7620" />
      
      <!-- Concave surface -->
      <path d="M 10,30 C 30,37 70,37 90,30 C 80,35 70,40 50,45 C 30,40 20,35 10,30 Z" fill="#ff8c41" />
      <path d="M 10,30 C 30,37 70,37 90,30 L 90,55 C 70,62 30,62 10,55 L 10,30 Z" fill="url(#topGradient)" />
      <path d="M 10,55 C 30,62 70,62 90,55 L 90,85 L 10,85 L 10,55 Z" fill="#ff7620" />
      
      <!-- Highlights to enhance concave look -->
      <ellipse cx="50" cy="45" rx="35" ry="12" fill="white" opacity="0.1" />
      <path d="M 20,37 C 35,42 65,42 80,37" fill="none" stroke="white" stroke-width="1" opacity="0.2" />
      <path d="M 20,75 C 35,72 65,72 80,75" fill="none" stroke="#c83c00" stroke-width="1" opacity="0.2" />
    </g>
    
    <!-- lowercase b character -->
    <g transform="translate(50, 55)">
      <text x="0" y="0" font-family="Arial, sans-serif" font-size="48" font-weight="bold" 
            text-anchor="middle" dominant-baseline="middle" fill="#3b82f6" stroke="#2563eb" stroke-width="1">
        b
      </text>
    </g>
  </g>
</svg> 